<?xml version="1.0" encoding="utf-8"?>
<svg viewBox="89.4654 52.1301 395.741 395.74" width="395.741px" height="395.74px" xmlns="http://www.w3.org/2000/svg">
  <path d="M 95.478 253.927 L -33.009 382.414 L -63.846 351.577 L 64.641 223.09 L 95.478 253.927 Z" fill="#ef7c00" fill-rule="evenodd" transform="matrix(1, 0, 0, 1, 225.26441955566406, -170.9599304199219)"/>
  <path stroke-width="1.0001" stroke-linecap="butt" stroke-miterlimit="22.925585" stroke-linejoin="miter" fill="none" stroke="#ef7c00" d="M 95.478 253.927 L -33.009 382.414 L -63.846 351.577 L 64.641 223.09 L 95.478 253.927 Z" transform="matrix(1, 0, 0, 1, 225.26441955566406, -170.9599304199219)"/>
  <path d="M 136.594 295.043 L 8.107 423.529 L -22.73 392.693 L 105.757 264.206 L 136.594 295.043 Z" fill="#1a1a18" fill-rule="evenodd" transform="matrix(1, 0, 0, 1, 225.26441955566406, -170.9599304199219)"/>
  <path stroke-width="1.0001" stroke-linecap="butt" stroke-miterlimit="22.925585" stroke-linejoin="miter" fill="none" stroke="#ef7c00" d="M 136.594 295.043 L 8.107 423.529 L -22.73 392.693 L 105.757 264.206 L 136.594 295.043 Z" transform="matrix(1, 0, 0, 1, 225.26441955566406, -170.9599304199219)"/>
  <path d="M 177.71 336.158 L 49.223 464.645 L 18.386 433.808 L 146.873 305.322 L 177.71 336.158 Z" fill="#ef7c00" fill-rule="evenodd" transform="matrix(1, 0, 0, 1, 225.26441955566406, -170.9599304199219)"/>
  <path stroke-width="1.0001" stroke-linecap="butt" stroke-miterlimit="22.925585" stroke-linejoin="miter" fill="none" stroke="#ef7c00" d="M 177.71 336.158 L 49.223 464.645 L 18.386 433.808 L 146.873 305.322 L 177.71 336.158 Z" transform="matrix(1, 0, 0, 1, 225.26441955566406, -170.9599304199219)"/>
  <path d="M 218.826 377.274 L 90.339 505.761 L 59.502 474.924 L 187.989 346.437 L 218.826 377.274 Z" fill="#1a1a18" fill-rule="evenodd" transform="matrix(1, 0, 0, 1, 225.26441955566406, -170.9599304199219)"/>
  <path stroke-width="1.0001" stroke-linecap="butt" stroke-miterlimit="22.925585" stroke-linejoin="miter" fill="none" stroke="#ef7c00" d="M 218.826 377.274 L 90.339 505.761 L 59.502 474.924 L 187.989 346.437 L 218.826 377.274 Z" transform="matrix(1, 0, 0, 1, 225.26441955566406, -170.9599304199219)"/>
  <path d="M 259.942 418.39 L 131.454 546.877 L 100.617 516.04 L 229.105 387.553 L 259.942 418.39 Z" fill="#ef7c00" fill-rule="evenodd" transform="matrix(1, 0, 0, 1, 225.26441955566406, -170.9599304199219)"/>
  <path stroke-width="1.0001" stroke-linecap="butt" stroke-miterlimit="22.925585" stroke-linejoin="miter" fill="none" stroke="#ef7c00" d="M 259.942 418.39 L 131.454 546.877 L 100.617 516.04 L 229.105 387.553 L 259.942 418.39 Z" transform="matrix(1, 0, 0, 1, 225.26441955566406, -170.9599304199219)"/>
  <path d="M -104.962 392.693 L 90.339 587.993 L 59.502 618.83 L -135.799 423.53 L -104.962 392.693 Z" fill="#1a1a18" fill-rule="evenodd" transform="matrix(1, 0, 0, 1, 225.26441955566406, -170.9599304199219)"/>
  <path stroke-width="1.0001" stroke-linecap="butt" stroke-miterlimit="22.925585" stroke-linejoin="miter" fill="none" stroke="#ef7c00" d="M -104.962 392.693 L 90.339 587.993 L 59.502 618.83 L -135.799 423.53 L -104.962 392.693 Z" transform="matrix(1, 0, 0, 1, 225.26441955566406, -170.9599304199219)"/>
  <path d="M -68.985 356.717 L 126.315 552.017 L 95.478 582.854 L -99.822 387.553 L -68.985 356.717 Z" fill="#ef7c00" fill-rule="evenodd" transform="matrix(1, 0, 0, 1, 225.26441955566406, -170.9599304199219)"/>
  <path stroke-width="1.0001" stroke-linecap="butt" stroke-miterlimit="22.925585" stroke-linejoin="miter" fill="none" stroke="#ef7c00" d="M -68.985 356.717 L 126.315 552.017 L 95.478 582.854 L -99.822 387.553 L -68.985 356.717 Z" transform="matrix(1, 0, 0, 1, 225.26441955566406, -170.9599304199219)"/>
  <path d="M -91.187 448.143 L -81.752 438.707 L -72.904 447.554 L -74.285 448.935 L -81.661 441.558 L -84.015 443.911 L -79.172 448.754 L -80.53 450.111 L -85.372 445.269 L -88.359 448.256 L -80.575 456.04 L -81.933 457.397 L -91.187 448.143 Z M -72.837 455.497 L -67.452 460.882 C -66.95 461.383 -66.452 461.663 -65.962 461.708 C -65.472 461.753 -65.019 461.572 -64.604 461.157 C -64.201 460.754 -64.016 460.312 -64.053 459.83 C -64.087 459.351 -64.348 458.872 -64.827 458.393 L -70.28 452.94 L -72.837 455.497 Z M -74.217 456.877 L -78.335 460.995 L -79.806 459.524 L -70.37 450.088 L -63.514 456.945 C -62.541 457.918 -62.017 458.902 -61.938 459.901 C -61.859 460.901 -62.236 461.821 -63.069 462.654 C -63.857 463.442 -64.77 463.82 -65.807 463.786 C -66.848 463.748 -67.802 463.292 -68.673 462.421 L -74.217 456.877 Z M -61.745 475.413 C -60.486 476.672 -59.117 477.362 -57.639 477.475 C -56.164 477.592 -54.901 477.121 -53.848 476.069 C -52.804 475.024 -52.34 473.761 -52.453 472.275 C -52.57 470.793 -53.253 469.424 -54.505 468.172 C -55.757 466.92 -57.118 466.237 -58.593 466.128 C -60.063 466.014 -61.327 466.486 -62.379 467.538 C -63.431 468.59 -63.903 469.854 -63.789 471.324 C -63.68 472.799 -62.997 474.16 -61.745 475.413 Z M -63.126 476.793 C -64.804 475.115 -65.713 473.255 -65.845 471.223 C -65.981 469.194 -65.332 467.459 -63.895 466.022 C -62.454 464.581 -60.723 463.929 -58.706 464.069 C -56.684 464.212 -54.833 465.128 -53.147 466.814 C -51.446 468.515 -50.522 470.374 -50.375 472.392 C -50.232 474.406 -50.884 476.137 -52.332 477.585 C -53.777 479.029 -55.512 479.678 -57.541 479.542 C -59.57 479.406 -61.429 478.49 -63.126 476.793 Z M -56.417 482.914 L -47.724 482.148 L -46.924 473.534 L -45.148 475.311 L -45.733 481.975 L -39.084 481.375 L -37.274 483.185 L -45.865 483.917 L -46.664 492.666 L -48.452 490.878 L -47.852 484.094 L -54.671 484.659 L -56.417 482.914 Z M -42.112 497.218 L -37.296 492.402 L -36.976 483.483 L -35.075 485.384 L -35.294 491.863 L -28.875 491.584 L -26.907 493.552 L -35.826 493.828 L -40.664 498.666 L -42.112 497.218 Z M -34.717 504.613 L -25.281 495.178 L -16.434 504.025 L -17.814 505.405 L -25.191 498.029 L -27.544 500.382 L -22.702 505.224 L -24.059 506.582 L -28.902 501.74 L -31.888 504.727 L -24.104 512.51 L -25.462 513.868 L -34.717 504.613 Z M -9.721 510.738 C -8.179 512.28 -7.379 513.962 -7.311 515.788 C -7.251 517.613 -7.922 519.227 -9.329 520.633 C -10.751 522.055 -12.349 522.727 -14.126 522.655 C -15.898 522.58 -17.577 521.754 -19.157 520.173 L -23.335 515.995 L -13.899 506.559 L -9.721 510.738 Z M -11.056 512.118 L -13.787 509.388 L -20.507 516.108 L -17.776 518.839 C -16.656 519.958 -15.472 520.539 -14.231 520.581 C -12.991 520.622 -11.852 520.125 -10.822 519.095 C -9.827 518.099 -9.348 516.957 -9.386 515.667 C -9.423 514.377 -9.977 513.197 -11.056 512.118 Z M -1.609 530.39 L -0.251 529.032 L 3.641 532.924 L 0.793 535.772 C -0.561 536.031 -1.885 535.937 -3.182 535.477 C -4.475 535.021 -5.705 534.214 -6.862 533.056 C -8.601 531.318 -9.555 529.428 -9.721 527.384 C -9.887 525.34 -9.249 523.594 -7.809 522.153 C -6.365 520.709 -4.619 520.072 -2.559 520.238 C -0.5 520.404 1.389 521.35 3.116 523.077 C 4.206 524.167 4.983 525.321 5.454 526.539 C 5.922 527.761 6.073 529.013 5.903 530.3 L 3.953 529.979 C 4.074 529.059 3.946 528.108 3.565 527.132 C 3.18 526.151 2.577 525.253 1.759 524.435 C 0.469 523.145 -0.93 522.433 -2.439 522.289 C -3.951 522.15 -5.225 522.602 -6.27 523.647 C -7.315 524.691 -7.768 525.966 -7.632 527.475 C -7.492 528.979 -6.779 530.378 -5.482 531.676 C -4.671 532.486 -3.774 533.09 -2.789 533.486 C -1.809 533.878 -0.953 533.988 -0.225 533.803 L 0.789 532.788 L -1.609 530.39 Z M 1.314 540.644 L 10.749 531.208 L 19.597 540.056 L 18.216 541.436 L 10.84 534.059 L 8.487 536.412 L 13.329 541.255 L 11.971 542.612 L 7.129 537.77 L 4.142 540.757 L 11.926 548.541 L 10.568 549.899 L 1.314 540.644 Z M 11.021 550.351 L 30.05 547.794 L 22.516 540.259 L 23.918 538.856 L 34.214 549.152 L 15.369 551.894 L 23.375 559.899 L 21.972 561.303 L 11.021 550.351 Z M 22.534 561.864 L 41.564 559.308 L 34.029 551.773 L 35.432 550.37 L 45.727 560.665 L 26.883 563.407 L 34.889 571.413 L 33.486 572.816 L 22.534 561.864 Z" fill="#ef7c00" transform="matrix(1, 0, 0, 1, 225.26441955566406, -170.9599304199219)"/>
</svg>