<?xml version="1.0" standalone="no"?>
<!DOCTYPE svg PUBLIC "-//W3C//DTD SVG 20010904//EN"
 "http://www.w3.org/TR/2001/REC-SVG-20010904/DTD/svg10.dtd">
<svg version="1.0" xmlns="http://www.w3.org/2000/svg"
 width="700.000000pt" height="700.000000pt" viewBox="0 0 700.000000 700.000000"
 preserveAspectRatio="xMidYMid meet">
<metadata>
Created by potrace 1.14, written by Peter Selinger 2001-2017
</metadata>
<g transform="translate(0.000000,700.000000) scale(0.100000,-0.100000)"
fill="#000000" stroke="none">
<path d="M2399 5865 c-623 -625 -1135 -1136 -1136 -1138 -1 -1 123 -127 276
-280 l278 -278 1142 1142 c1120 1120 1142 1142 1124 1161 -68 76 -529 528
-538 528 -6 0 -522 -511 -1146 -1135z"/>
<path d="M3126 5140 l-1139 -1140 279 -280 280 -279 1142 1142 1143 1143 -277
277 c-153 152 -280 277 -283 277 -3 0 -519 -513 -1145 -1140z"/>
<path d="M3884 4441 c-610 -610 -1122 -1123 -1138 -1140 l-30 -31 275 -275
c151 -151 278 -273 283 -272 12 4 2276 2269 2276 2277 0 9 -541 550 -550 550
-4 0 -506 -499 -1116 -1109z"/>
<path d="M4582 3687 l-1142 -1142 280 -279 280 -280 1140 1140 c627 626 1140
1142 1140 1145 0 5 -439 448 -527 531 l-29 28 -1142 -1143z"/>
<path d="M912 4377 c-150 -150 -275 -276 -279 -280 -6 -7 3444 -3467 3458
-3467 9 0 552 546 551 554 -1 4 -779 785 -1730 1736 l-1729 1729 -271 -272z"/>
<path d="M5310 2959 c-624 -626 -1136 -1140 -1137 -1141 -1 -2 123 -128 276
-281 l277 -277 1135 1134 c624 624 1135 1141 1137 1149 3 13 -535 558 -547
556 -3 -1 -517 -514 -1141 -1140z"/>
<path d="M274 3740 c-148 -148 -269 -276 -269 -285 0 -21 3435 -3457 3452
-3453 8 2 135 124 283 272 l270 270 -22 24 c-33 35 -3421 3422 -3433 3432 -8
6 -103 -83 -281 -260z"/>
</g>
</svg>
